<svg xmlns="http://www.w3.org/2000/svg" viewBox="0 0 118 22" width="118" height="22" fill="none"><path fill="#111" d="M17.9149.397781h4.74l4 20.830519h-3.94l-.71-4.6025h-3.32l-.8 4.5728h-4l4.03-20.800819Zm3.65 13.609319-1.26-8.37193-1.25 8.37193h2.51ZM29.7255 3.53228h-3.24V.397781h10.72V3.53228h-3.2V21.1986h-4.29l.01-17.66632Z"/><path fill="#444" d="M45.6165.397781h8.13V2.56019h-5.2001v6.87407h4.22v2.05334h-4.22v7.6279h5.25v2.0831h-8.1799V.397781ZM56.157.397781h2l6 13.817619V.397781h2.44V21.2283h-1.87l-6-14.20443V21.1986h-2.48L56.157.397781ZM69.8276.397781h8.12V2.56019h-5.2v6.87407h4.26v2.05334h-4.22v7.6279h5.22v2.0831h-8.18V.397781ZM80.3582.397779h4.22c1.663-.132743 3.3191.328081 4.67 1.299431 1 .86298 1.4899 2.27152 1.4899 4.22562 0 2.64515-.8633 4.26197-2.59 4.85057l3 10.4252h-2.8399l-2.75-9.7606h-2.2701v9.7606h-2.9299V.397779Zm4 8.927371c.9633.09246 1.9267-.17652 2.7-.75387.3142-.36891.5491-.7977.6901-1.25998.141-.46228.1852-.9483.1298-1.42815.0201-.67296-.078-1.34427-.2899-1.98386-.086-.23583-.2188-.45216-.3906-.63617s-.379-.33197-.6094-.43511c-.6492-.26419-1.3493-.38275-2.0501-.34718h-1.2899v6.884l1.11-.03968ZM94.6788 19.6611c-.9559-1.6004-1.3988-3.4511-1.27-5.3069V7.41073c-.0345-1.33994.1341-2.67742.5-3.96772.2888-.97005.9026-1.81335 1.74-2.39055 1.011-.60434 2.1813-.894545 3.36-.833223.7625-.071927 1.5312.022185 2.2532.275756.722.253571 1.38.660487 1.927 1.192297.959 1.3332 1.413 2.95992 1.28 4.59264v.77371h-2.75v-.64476c.019-.77116-.042-1.54221-.18-2.30128-.091-.48647-.362-.92162-.76-1.22007-.519-.30389-1.1187-.44561-1.7202-.40669-.6532-.05543-1.3025.14383-1.81.55548-.4147.39034-.6858.90714-.77 1.46805-.1267.81709-.1835 1.64333-.17 2.46991v7.72712c-.0794 1.1742.1228 2.3504.59 3.4321.2714.3327.6158.5994 1.007.7798.3911.1804.8187.2697 1.25.2611.4313-.0086.8552-.1149 1.2382-.3108.384-.1959.717-.4762.975-.8194.482-1.1441.69-2.3832.61-3.6205v-1.4681h-2.6602v-2.0533h5.3002v10.2963h-1.81l-.29-2.3906c-.229.7942-.723 1.4882-1.4 1.969-.677.4808-1.4984.7203-2.3302.6795-.7821.0684-1.5689-.0604-2.2874-.3742-.7185-.3139-1.3455-.8028-1.8226-1.4212Z"/><path fill="#111" d="M1.66421 19.6611C.634036 18.1469.141461 16.3356.264212 14.5129V7.07347C.13426 5.2374.61939 3.41017 1.64421 1.87576c.92667-1.183705 2.51-1.772248 4.75-1.765636 2.24.006613 3.75669.525723 4.54999 1.557326.9673 1.2784 1.4394 2.85902 1.33 4.45377v1.7458H8.13421V5.97243a9.842265 9.842265 0 0 0-.13-1.48789c-.05006-.35619-.21493-.68676-.47-.94234-.15746-.13394-.34027-.23539-.53773-.29841-.19746-.06302-.40562-.08634-.61227-.0686-.2968-.04394-.60003.00391-.86843.13703-.2684.13311-.48893.34503-.63157.60691-.26294.69661-.37866 1.43941-.34 2.18225v9.44322c-.04562.7477.08803 1.4956.39 2.1822.14428.2477.35838.4482.61598.5769.2576.1286.54748.1798.83402.1472.28155.0395.5685-.0102.8199-.142.25139-.1318.45441-.339.5801-.592.24189-.6979.34711-1.4353.30999-2.1723v-1.9839h4.14v1.716c.1219 1.6183-.3116 3.2299-1.23 4.5728-.88 1.0912-2.39999 1.6268-4.55999 1.6268s-3.85-.5952-4.78-1.8152Z"/><path fill="#444" d="M110.699 13.8583 106.169.397781h2.72l3.21 10.038319 3.16-10.038319h2.75l-4.5 13.460519v7.3403h-2.8l-.01-7.3403Z"/></svg>
