<svg xmlns="http://www.w3.org/2000/svg" xmlns:xlink="http://www.w3.org/1999/xlink"><defs>
<clipPath id="clip0_2403_774">
<rect width="268" height="112" fill="white" transform="translate(0 44)"/>
</clipPath>

<clipPath id="clip0_2403_755">
<rect width="140" height="194" fill="white" transform="translate(30)"/>
</clipPath>
</defs><symbol id="cat-fat" viewBox="0 0 268 200">
<circle cx="136" cy="100" r="100" fill="#68B738"/>
<g clip-path="url(#clip0_2403_774)">
<path d="M246.2 55.5999C248.509 51.9261 251.578 48.7891 255.2 46.3999C257.2 44.9999 258.4 44.9999 259.6 47.5999C261.2 51.3999 262.6 55.3999 261.4 59.5999C261.182 60.3122 261.14 61.0671 261.28 61.799C261.419 62.5309 261.735 63.2177 262.2 63.7999C263.4 65.3999 264.4 66.9999 265.4 68.3999C266.761 70.1274 267.644 72.1825 267.96 74.359C268.276 76.5354 268.014 78.7567 267.2 80.7999C266.466 82.7835 266.327 84.9384 266.8 86.9999C267.2 88.9799 267.2 91.0199 266.8 92.9999C266.638 94.4827 266.038 95.8837 265.076 97.0237C264.115 98.1637 262.835 98.991 261.4 99.3999C258.842 99.8867 256.559 101.314 255 103.4C254.811 103.707 254.546 103.961 254.231 104.136C253.916 104.311 253.561 104.402 253.2 104.4C250.8 104.8 244.8 99.3999 244.8 96.9999V95.7999C245 88.5999 244.6 87.9999 238 84.9999C236.619 84.5127 235.381 83.6877 234.4 82.5999C233.2 80.9999 231.6 81.1999 229.8 81.7999C228 82.3999 227 83.5999 227.2 85.5999C227.803 90.4416 228.004 95.325 227.8 100.2C227.813 100.756 227.95 101.303 228.2 101.8C234.4 110.8 236.8 121.4 239.8 131.6C242.2 139.4 246.6 143.6 254.6 144.2C255.88 144.302 257.151 144.503 258.4 144.8C260.044 145.064 261.57 145.815 262.783 146.956C263.995 148.097 264.837 149.575 265.2 151.2C266.6 155.4 265.8 156.4 261.6 156.4H248.6C246.917 156.485 245.267 155.911 244 154.8C241.976 153.092 239.677 151.739 237.2 150.8C234.462 149.789 232.093 147.977 230.4 145.6C228.057 142.327 225.376 139.31 222.4 136.6C216.8 130.8 210.8 125.2 205.6 119.2C201.641 115.112 199.358 109.688 199.2 104C199.2 102.2 198.8 101.4 196.8 102.2C196.201 102.58 195.509 102.787 194.8 102.8C189.2 102.8 186.4 106.2 184.4 111.2C182.6 115.4 180.2 119.4 178 123.6C176.753 126.229 176.071 129.091 176 132C176 136.8 177.2 138.4 181.6 140C184.4 141 187 142 188.4 144.8C190 148 189.6 148.8 186.2 149H172.6C171.816 149.078 171.027 148.907 170.346 148.512C169.664 148.117 169.123 147.518 168.8 146.8L165.2 140.8C164.139 139.234 163.459 137.442 163.216 135.566C162.973 133.691 163.173 131.784 163.8 130C164.666 126.527 164.734 122.903 164 119.4C163.496 116.96 163.539 114.439 164.127 112.018C164.715 109.597 165.833 107.337 167.4 105.4C168.6 104 168.6 103.4 166.6 103C158.422 101.263 150.493 98.5079 143 94.7999C142.947 94.7999 142.896 94.7788 142.859 94.7413C142.821 94.7038 142.8 94.6529 142.8 94.5999C136.4 92.1999 135.2 92.5999 133.4 99.1999C131.8 104.8 130.2 110.4 129 116.2C127.6 122.6 129.2 128.6 131.2 134.6C132 137 134.4 136.8 136.2 137.4C140.2 138.6 143.6 140.2 145.2 144.4C146.6 147.6 146.4 148 143 148C139.6 148 136.2 147.8 132.6 148C129.562 148.055 126.597 147.067 124.2 145.2C114.6 138.8 111.8 129 111 118.4C110.6 111.8 107 106.6 102.8 101.6C102 100.6 101.2 100.2 100 101C95.707 103.367 91.2249 105.374 86.6 107C76.9485 110.408 68.4793 116.517 62.2 124.6C59.8553 127.55 58.3368 131.07 57.8 134.8C57.2 138.4 58.2 140 61.8 141C65.4 142 67.2 144 67.6 147.8C67.8 149.4 67.2 150.2 65.6 150.2H49.4C48.8698 150.162 48.3566 149.997 47.9039 149.719C47.4512 149.44 47.0725 149.056 46.8 148.6C44.2877 145.489 42.9433 141.598 43 137.6C42.8951 130.69 43.4982 123.787 44.8 117C45.067 114.967 45.8259 113.03 47.0108 111.358C48.1958 109.685 49.7711 108.326 51.6 107.4C63.4 101.8 69.6 91.1999 75.2 80.1999C76.4 77.9999 75.4 77.5999 73.4 77.7999C67.8027 78.5769 62.4994 80.7809 58 84.1999C52.1084 88.4976 46.5585 93.2451 41.4 98.3999C35.8993 103.987 28.6054 107.457 20.8 108.2C6.20002 109 -0.599978 100.8 2.18973e-05 87.5999C0.134147 83.0991 1.83132 78.7854 4.80002 75.3999C5.83206 74.0619 7.23949 73.0619 8.84256 72.5275C10.4456 71.9931 12.1716 71.9487 13.8 72.3999C16.8 73.1999 17.6 74.7999 16.4 77.7999C15.8 78.9999 15 79.9999 14.4 81.1999C13.5372 82.4258 12.8631 83.7741 12.4 85.1999C10.2 91.1999 13.2 95.3999 19.4 95.9999C26 96.5999 31.4 93.7999 36.4 89.7999C42.4239 84.9764 47.8014 79.3972 52.4 73.1999C55.8385 68.6747 60.1682 64.9025 65.1217 62.1161C70.0751 59.3298 75.5472 57.5886 81.2 56.9999C85.8 56.3999 89.8 54.3999 94.2 53.1999C102.429 50.6911 110.998 49.4766 119.6 49.5999C123.584 49.7658 127.553 49.0131 131.2 47.3999C141 43.3999 151.2 43.3999 161.4 45.3999C169.4 46.9999 177.4 48.9999 185.2 50.9999C189.842 51.8648 194.615 51.7285 199.2 50.5999C207.977 48.375 216.956 47.0349 226 46.5999C231.925 46.3116 237.83 47.479 243.2 49.9999C247.2 51.7999 247.2 51.7999 246.2 55.5999Z" fill="black"/>
</g>

</symbol><symbol id="cat-slim" viewBox="0 0 200 211">
<circle cx="100" cy="111" r="100" fill="#68B738"/>
<g clip-path="url(#clip0_2403_755)">
<path d="M139.68 0H138.92C137.636 0.725875 136.614 1.83883 136 3.18C134.875 5.34423 134.009 7.63331 133.42 10C133.294 10.7116 132.934 11.3611 132.398 11.8462C131.863 12.3313 131.181 12.6246 130.46 12.68C128.256 13.06 126.167 13.9386 124.355 15.2489C122.542 16.5591 121.052 18.2663 120 20.24C118.553 22.8026 117.316 25.478 116.3 28.24C113.46 35.6 111.28 43.2 108.6 50.62C107.34 54 107.28 54 103.48 54C98.94 54 99.26 53.3 99.2 58.3C99.2 59.88 99.68 60.68 101.36 60.6C101.88 60.6 102.66 60.34 102.86 61.02C103.06 61.7 102.38 62 101.98 62.4C99.6086 64.8073 96.6075 66.4984 93.32 67.28C89.52 68.3 85.64 69.1 81.94 70.34C72.44 73.52 63.66 77.96 56.82 85.48C52.8206 90.1507 49.6177 95.4483 47.34 101.16C40 118.44 36.44 136.64 33.68 155.02C32.38 163.64 31.46 172.3 30.76 181.02C30.4 185.3 30 189.64 30 194H96.66C96.7707 193.12 96.6102 192.227 96.2 191.44C95.5589 189.844 94.5171 188.441 93.1753 187.365C91.8335 186.29 90.237 185.578 88.54 185.3C87.14 184.98 86.98 184.56 87.84 183.46C89.2427 181.588 90.318 179.492 91.02 177.26C94.28 167.64 95.54 157.6 97.12 147.66C98.0125 140.068 100.348 132.716 104 126C106.849 121.057 110.649 116.727 115.18 113.26C116.84 112 116.9 112 117.18 114.14C117.38 115.56 117.42 117.02 117.52 118.46C118.12 127.909 118 137.39 117.16 146.82C116.405 154.13 116.304 161.492 116.86 168.82C117.655 177.327 119.174 185.751 121.4 194H148C147.653 191.835 146.656 189.826 145.142 188.241C143.627 186.655 141.667 185.567 139.52 185.12C137.013 184.722 134.45 184.858 132 185.52C130.8 185.8 130.3 185.52 130.2 184.22C129.373 173.632 130.046 162.98 132.2 152.58C134.868 140.574 136.91 128.438 138.32 116.22C138.845 111.286 140.398 106.517 142.88 102.22C145.26 97.98 147.34 93.58 149.68 89.32C150.609 87.771 151.168 86.0286 151.314 84.2282C151.46 82.4279 151.188 80.6182 150.52 78.94C149.98 77.52 149.46 76.08 148.8 74.72C146.8 70.82 144.8 66.96 142.96 63.02C141.98 61.02 142.2 60.78 144.38 60.72C147.64 60.72 147.64 60.72 147.7 57.44C147.7 57 147.7 56.56 147.7 56.12C147.7 54.74 147.18 53.98 145.7 54.12C144.7 54.12 143.7 54.12 142.66 54.12C141.28 54.12 140.88 53.54 141.22 52.12C141.895 49.8116 143.222 47.7473 145.042 46.1755C146.862 44.6037 149.098 43.5912 151.48 43.26C155.911 42.8758 160.376 43.1657 164.72 44.12C165.221 44.2779 165.765 44.2322 166.232 43.9927C166.7 43.7531 167.055 43.3391 167.22 42.84C168.02 40.84 168.9 38.84 169.8 36.84C170.004 36.4852 170.094 36.0763 170.058 35.6686C170.023 35.2608 169.863 34.8739 169.6 34.56C163.2 26.44 156.26 18.86 146.8 14C146.343 13.8033 145.942 13.4952 145.635 13.1039C145.328 12.7127 145.123 12.2506 145.04 11.76C144.505 8.90102 143.653 6.11051 142.5 3.44C141.959 2.01723 140.969 0.809563 139.68 0V0Z" fill="black"/>
</g>

</symbol><symbol id="copyright-logo-image" viewBox="0 0 27 34"><path fill="#666" d="M13.64.02 13.5 0 0 1.4v24.61L13.5 34 27 26.01V1.41L13.64 0Zm11.6 25L13.5 31.96 1.77 25.02v-10.1l11.68 6.93.02 1.25-8.02-4.75v1.23l8.04 4.8.02 1.3-8.05-4.76v1.22l8.04 4.81 8.12-4.83V16.9l3.62-2.15v10.26Zm0-11.57L22 15.33l-1.48.88-7.06-4.19-.01 1.23 6.04 3.57-.06.03-.13.07-.86.5-4.98-2.95-.01 1.22 3.93 2.33-.93.61-.02.01-2.97-1.74-.01 1.23 1.94 1.13-1.98 1.19L1.8 13.58l11.63-6.96 11.8 6.83Zm0-1.22L13.43 5.3 1.77 12.22V2.99L13.5 1.76 25.23 3v9.24Z"/></symbol><symbol id="copyright-logo-text" viewBox="0 0 113 16"><path fill="#444" d="M.28 12V.55H1.8v4.7h5.95V.55h1.52V12H7.75V6.6H1.8V12H.28Zm14.43 0V1.9h-3.77V.55h9.08V1.9h-3.8V12h-1.5Zm6.82 0V.55h2.28l2.71 8.1.55 1.7c.13-.42.33-1.03.61-1.83L30.42.55h2.04V12H31V2.41L27.67 12H26.3L23 2.25V12h-1.47Zm13.31 0V.55h1.52v10.1H42V12h-7.16Zm10.68 0L49.92.55h1.63L56.25 12h-1.73l-1.34-3.47h-4.79L47.13 12h-1.6Zm3.3-4.7h3.9l-1.2-3.17c-.37-.97-.64-1.76-.82-2.38-.14.73-.35 1.46-.61 2.19L48.83 7.3ZM62.7 8.96l1.38.18a3.6 3.6 0 0 1-1.16 2.24c-.62.54-1.39.8-2.3.8a3.58 3.58 0 0 1-2.73-1.1c-.7-.75-1.04-1.81-1.04-3.2 0-.9.15-1.68.45-2.35.3-.67.75-1.17 1.35-1.5.61-.35 1.27-.51 1.98-.51.9 0 1.64.22 2.22.68.57.46.94 1.1 1.1 1.94l-1.37.21a2.26 2.26 0 0 0-.7-1.26 1.77 1.77 0 0 0-1.19-.42c-.7 0-1.28.26-1.73.77-.44.5-.66 1.3-.66 2.4 0 1.12.21 1.93.64 2.43.43.5.98.76 1.67.76.55 0 1.01-.17 1.38-.5.37-.35.6-.87.7-1.57Zm8 2.02c-.52.44-1.03.75-1.51.93-.48.19-1 .28-1.55.28-.9 0-1.6-.22-2.1-.67a2.22 2.22 0 0 1-.73-1.7 2.27 2.27 0 0 1 1-1.93c.3-.2.64-.36 1.01-.46.28-.07.7-.14 1.25-.21 1.14-.14 1.97-.3 2.51-.49v-.36c0-.58-.12-.98-.39-1.21-.36-.32-.9-.48-1.6-.48-.66 0-1.15.12-1.47.35-.31.23-.54.64-.7 1.23l-1.37-.19c.12-.59.33-1.06.62-1.42.28-.37.7-.64 1.24-.84.54-.2 1.17-.3 1.88-.3s1.29.09 1.73.26c.44.16.77.37.97.63.21.25.36.57.44.95.05.24.07.67.07 1.3v1.87c0 1.31.03 2.14.09 2.49.06.34.18.67.36.99h-1.47c-.15-.3-.24-.63-.28-1.02Zm-.12-3.14c-.51.2-1.28.38-2.3.53-.57.08-.98.17-1.22.28a1.21 1.21 0 0 0-.75 1.12c0 .38.14.7.42.94.29.25.7.38 1.25.38.54 0 1.02-.12 1.44-.36.43-.24.74-.56.93-.97.15-.32.23-.79.23-1.4v-.52Zm9 4.16v-1.05a2.58 2.58 0 0 1-2.33 1.24c-.66 0-1.27-.18-1.83-.55a3.64 3.64 0 0 1-1.28-1.52c-.3-.66-.46-1.41-.46-2.26 0-.83.14-1.58.42-2.25a3.26 3.26 0 0 1 3.09-2.1 2.74 2.74 0 0 1 2.29 1.15V.55h1.4V12h-1.3Zm-4.45-4.14c0 1.06.22 1.86.67 2.38.45.53.98.8 1.58.8.62 0 1.14-.26 1.57-.76.43-.5.65-1.27.65-2.3 0-1.14-.22-1.97-.66-2.5a2.02 2.02 0 0 0-3.19-.03c-.41.5-.62 1.31-.62 2.4Zm13.65 1.47 1.45.18c-.23.85-.65 1.5-1.27 1.97s-1.42.7-2.38.7a3.82 3.82 0 0 1-2.89-1.11 4.4 4.4 0 0 1-1.06-3.15c0-1.4.36-2.48 1.08-3.25a3.65 3.65 0 0 1 2.8-1.15c1.1 0 2 .37 2.71 1.13a4.5 4.5 0 0 1 1.06 3.19l-.01.37h-6.19c.05.91.31 1.61.77 2.1a2.3 2.3 0 0 0 1.74.72c.51 0 .95-.13 1.32-.4.36-.28.65-.7.87-1.3Zm-4.62-2.28h4.63a2.81 2.81 0 0 0-.53-1.57 2.16 2.16 0 0 0-1.74-.8c-.65 0-1.2.2-1.64.64a2.58 2.58 0 0 0-.72 1.73ZM91.99 12V3.7h1.26v1.17a2.92 2.92 0 0 1 2.52-1.35c.61 0 1.11.12 1.5.38.4.25.68.61.84 1.07a2.98 2.98 0 0 1 2.56-1.45c.83 0 1.46.22 1.9.68.44.46.66 1.16.66 2.1V12h-1.4V6.77c0-.56-.04-.96-.14-1.2a1.15 1.15 0 0 0-.49-.6 1.96 1.96 0 0 0-2.3.36c-.38.38-.57 1-.57 1.85V12h-1.4V6.6c0-.62-.12-1.08-.35-1.4-.23-.3-.6-.47-1.13-.47-.4 0-.76.1-1.1.32-.33.2-.57.51-.72.91-.16.4-.23.98-.23 1.74V12H92Zm13.27 3.2-.16-1.32c.3.08.58.12.8.12.32 0 .57-.05.76-.16.18-.1.34-.25.46-.43.09-.14.23-.5.43-1.05l.12-.34-3.15-8.32h1.52l1.73 4.8c.22.62.42 1.26.6 1.93.16-.65.35-1.28.57-1.9l1.78-4.83h1.4l-3.15 8.44c-.34.91-.6 1.54-.79 1.88-.25.47-.54.8-.86 1.02-.32.22-.7.33-1.16.33-.27 0-.57-.06-.9-.17Z"/></symbol><symbol id="logo-text-footer" viewBox="0 0 128 24">
<path d="M1.6025 22.0513C0.468327 20.3682 -0.0946878 18.3503 -3.57628e-07 16.3077V7.79487C-0.137348 5.73031 0.390413 3.67661 1.50235 1.94872C2.60407 0.615385 4.30673 0 6.81064 0C9.31455 0 10.9171 0.615385 11.9186 1.74359C13.006 3.17255 13.5409 4.96181 13.421 6.76923V8.82051H8.5133V6.46154C8.55294 5.76385 8.45062 5.06533 8.21283 4.41026C8.08573 4.14583 7.88428 3.9264 7.6344 3.78018C7.38452 3.63395 7.09763 3.56763 6.81064 3.58974C6.10955 3.58974 5.60876 3.79487 5.40845 4.30769C5.18187 5.03643 5.08022 5.79984 5.10798 6.5641V17.5385C5.05509 18.2799 5.19324 19.0227 5.50861 19.6923C5.70892 20.2051 6.2097 20.4103 6.9108 20.4103C7.61189 20.4103 8.01252 20.2051 8.21283 19.6923C8.44055 18.9992 8.54239 18.2692 8.5133 17.5385V15.0769H13.421V17.1282C13.5228 18.9651 12.9911 20.7803 11.9186 22.2564C10.9171 23.4872 9.2144 24.1026 6.81064 24.1026C4.40689 24 2.60407 23.3846 1.6025 22.0513Z" fill="#111111"/>
<path d="M19.3302 0.307617H25.0391L29.2457 23.6922H24.6385L23.8372 18.7692H20.532L19.7308 23.6922H15.0234L19.3302 0.307617ZM23.4366 15.6922L22.2347 6.56403L21.0328 15.6922H23.4366Z" fill="#111111"/>
<path d="M32.7511 4.20505H29.3458V0.307617H41.2645V4.10249H37.8591V23.6922H32.7511V4.20505Z" fill="#111111"/>
<path d="M50.3787 0.307617H59.1925V2.76916H53.4836V10.4615H58.0908V12.8204H53.4836V21.4358H59.1925V23.7948H50.2786V0.307617H50.3787Z" fill="#111111"/>
<path d="M61.7965 0.307617H64L70.5101 15.7948V0.307617H73.1142V23.6922H71.1111L64.5007 7.69223V23.6922H61.7965V0.307617Z" fill="#111111"/>
<path d="M76.1189 0.307617H84.9327V2.76916H79.2237V10.4615H83.8309V12.8204H79.2237V21.4358H84.9327V23.7948H76.1189V0.307617Z" fill="#111111"/>
<path d="M87.5368 0.3076H92.144C93.9564 0.179397 95.7575 0.685711 97.252 1.7435C98.3537 2.66657 98.8545 4.3076 98.8545 6.46145C98.8545 9.4358 97.9531 11.282 96.0501 11.8973L99.2551 23.5897H96.1503L93.1456 12.6153H90.6416V23.5897H87.4366V0.3076H87.5368ZM91.9437 10.3589C92.9762 10.446 94.0054 10.1553 94.8482 9.53837C95.4492 9.02555 95.7496 7.99991 95.7496 6.46145C95.7774 5.69719 95.6757 4.93378 95.4492 4.20504C95.2237 3.68211 94.8366 3.24964 94.3474 2.97427C93.6576 2.65236 92.9003 2.51137 92.144 2.56401H90.7418V10.2563H91.9437V10.3589Z" fill="#111111"/>
<path d="M102.861 21.9487C101.82 20.1554 101.331 18.0821 101.458 15.9999V8.20507C101.434 6.71875 101.602 5.23567 101.959 3.79481C102.294 2.71811 102.962 1.78218 103.862 1.12815C104.981 0.450275 106.271 0.128917 107.568 0.20507C109.671 0.20507 111.174 0.71789 112.075 1.8461C113.112 3.33582 113.608 5.14977 113.477 6.9743V7.79481H110.473V7.07687C110.477 6.21789 110.41 5.36008 110.272 4.51276C110.188 3.97732 109.9 3.49792 109.471 3.17943C108.908 2.80104 108.24 2.62099 107.568 2.66661C106.85 2.61949 106.139 2.83785 105.565 3.28199C105.329 3.48529 105.137 3.73569 104.999 4.01787C104.861 4.30004 104.781 4.60805 104.764 4.92302C104.632 5.83993 104.565 6.76543 104.563 7.69225V16.4102C104.49 17.7384 104.694 19.0674 105.164 20.3076C105.565 21.1281 106.366 21.4358 107.568 21.4358C108.043 21.4964 108.524 21.4119 108.952 21.1929C109.379 20.9739 109.734 20.6302 109.972 20.2051C110.501 18.9081 110.741 17.5064 110.673 16.1025V14.4615H107.768V12.1025H113.577V23.6923H111.574L111.274 21.0256C111.011 21.9193 110.464 22.6975 109.72 23.2364C108.976 23.7753 108.078 24.0441 107.167 23.9999C106.34 24.0498 105.513 23.8885 104.761 23.5304C104.01 23.1724 103.357 22.6289 102.861 21.9487Z" fill="#111111"/>
<path d="M119.988 15.4871L115.08 0.410156H118.085L121.59 11.6922L124.995 0.410156H128L123.092 15.4871V23.6922H120.088V15.4871H119.988Z" fill="#111111"/>
</symbol><symbol id="logo-text-header" viewBox="0 0 118 22"><path fill="#111" d="M17.9149.397781h4.74l4 20.830519h-3.94l-.71-4.6025h-3.32l-.8 4.5728h-4l4.03-20.800819Zm3.65 13.609319-1.26-8.37193-1.25 8.37193h2.51ZM29.7255 3.53228h-3.24V.397781h10.72V3.53228h-3.2V21.1986h-4.29l.01-17.66632Z"/><path fill="#444" d="M45.6165.397781h8.13V2.56019h-5.2001v6.87407h4.22v2.05334h-4.22v7.6279h5.25v2.0831h-8.1799V.397781ZM56.157.397781h2l6 13.817619V.397781h2.44V21.2283h-1.87l-6-14.20443V21.1986h-2.48L56.157.397781ZM69.8276.397781h8.12V2.56019h-5.2v6.87407h4.26v2.05334h-4.22v7.6279h5.22v2.0831h-8.18V.397781ZM80.3582.397779h4.22c1.663-.132743 3.3191.328081 4.67 1.299431 1 .86298 1.4899 2.27152 1.4899 4.22562 0 2.64515-.8633 4.26197-2.59 4.85057l3 10.4252h-2.8399l-2.75-9.7606h-2.2701v9.7606h-2.9299V.397779Zm4 8.927371c.9633.09246 1.9267-.17652 2.7-.75387.3142-.36891.5491-.7977.6901-1.25998.141-.46228.1852-.9483.1298-1.42815.0201-.67296-.078-1.34427-.2899-1.98386-.086-.23583-.2188-.45216-.3906-.63617s-.379-.33197-.6094-.43511c-.6492-.26419-1.3493-.38275-2.0501-.34718h-1.2899v6.884l1.11-.03968ZM94.6788 19.6611c-.9559-1.6004-1.3988-3.4511-1.27-5.3069V7.41073c-.0345-1.33994.1341-2.67742.5-3.96772.2888-.97005.9026-1.81335 1.74-2.39055 1.011-.60434 2.1813-.894545 3.36-.833223.7625-.071927 1.5312.022185 2.2532.275756.722.253571 1.38.660487 1.927 1.192297.959 1.3332 1.413 2.95992 1.28 4.59264v.77371h-2.75v-.64476c.019-.77116-.042-1.54221-.18-2.30128-.091-.48647-.362-.92162-.76-1.22007-.519-.30389-1.1187-.44561-1.7202-.40669-.6532-.05543-1.3025.14383-1.81.55548-.4147.39034-.6858.90714-.77 1.46805-.1267.81709-.1835 1.64333-.17 2.46991v7.72712c-.0794 1.1742.1228 2.3504.59 3.4321.2714.3327.6158.5994 1.007.7798.3911.1804.8187.2697 1.25.2611.4313-.0086.8552-.1149 1.2382-.3108.384-.1959.717-.4762.975-.8194.482-1.1441.69-2.3832.61-3.6205v-1.4681h-2.6602v-2.0533h5.3002v10.2963h-1.81l-.29-2.3906c-.229.7942-.723 1.4882-1.4 1.969-.677.4808-1.4984.7203-2.3302.6795-.7821.0684-1.5689-.0604-2.2874-.3742-.7185-.3139-1.3455-.8028-1.8226-1.4212Z"/><path fill="#111" d="M1.66421 19.6611C.634036 18.1469.141461 16.3356.264212 14.5129V7.07347C.13426 5.2374.61939 3.41017 1.64421 1.87576c.92667-1.183705 2.51-1.772248 4.75-1.765636 2.24.006613 3.75669.525723 4.54999 1.557326.9673 1.2784 1.4394 2.85902 1.33 4.45377v1.7458H8.13421V5.97243a9.842265 9.842265 0 0 0-.13-1.48789c-.05006-.35619-.21493-.68676-.47-.94234-.15746-.13394-.34027-.23539-.53773-.29841-.19746-.06302-.40562-.08634-.61227-.0686-.2968-.04394-.60003.00391-.86843.13703-.2684.13311-.48893.34503-.63157.60691-.26294.69661-.37866 1.43941-.34 2.18225v9.44322c-.04562.7477.08803 1.4956.39 2.1822.14428.2477.35838.4482.61598.5769.2576.1286.54748.1798.83402.1472.28155.0395.5685-.0102.8199-.142.25139-.1318.45441-.339.5801-.592.24189-.6979.34711-1.4353.30999-2.1723v-1.9839h4.14v1.716c.1219 1.6183-.3116 3.2299-1.23 4.5728-.88 1.0912-2.39999 1.6268-4.55999 1.6268s-3.85-.5952-4.78-1.8152Z"/><path fill="#444" d="M110.699 13.8583 106.169.397781h2.72l3.21 10.038319 3.16-10.038319h2.75l-4.5 13.460519v7.3403h-2.8l-.01-7.3403Z"/></symbol></svg>